<svg width="20" height="20" viewBox="0 0 20 20" fill="none" xmlns="http://www.w3.org/2000/svg">
<path d="M17.5085 8.12832C17.5085 7.60736 17.0862 7.18503 16.5652 7.18503H12.3204C11.7995 7.18503 11.3771 7.60736 11.3771 8.12832V9.75036H7.51355L7.46054 9.64551C6.65318 7.93756 6.75835 5.65863 10.402 5.74033V7.86759L13.7651 4.64967L10.402 1.43143V3.51292C5.93627 3.40145 5.25253 7.09724 7.3271 9.64593L7.41868 9.75036H5.69083C5.16987 9.75036 4.74753 10.1727 4.74753 10.6937V11.9981H2.82495C2.30399 11.9981 2.03538 12.4205 2.22499 12.9414L3.76998 17.1862C3.95959 17.7072 4.53563 18.1295 5.05659 18.1295H16.8477C17.3118 18.1295 17.5753 17.7943 17.4934 17.3529C17.5031 17.2988 17.5085 17.2432 17.5085 17.1862V8.12832ZM16.3294 14.1137L15.9027 12.9414C15.7131 12.4205 15.1371 11.9981 14.6161 11.9981H5.92667V11.4011C5.92667 11.1406 6.13783 10.9295 6.39831 10.9295H12.5562V8.83578C12.5562 8.5753 12.7674 8.36414 13.0279 8.36414H15.8577C16.1182 8.36414 16.3294 8.5753 16.3294 8.83578V14.1137H16.3294Z" fill="#555555"/>
</svg>
