<svg width="20" height="20" viewBox="0 0 20 20" fill="none" xmlns="http://www.w3.org/2000/svg">
<path d="M18.7791 4.99648C18.7791 2.98633 17.1436 1.35059 15.1332 1.35059H4.92501C2.91466 1.35059 1.27911 2.98613 1.27911 4.99648V5.45645C1.27911 5.475 1.28009 5.49356 1.28146 5.51172C1.28009 5.53008 1.27911 5.54844 1.27911 5.56699V13.8398C1.27911 15.85 2.91466 17.4857 4.92501 17.4857H13.4012C13.8039 17.4857 14.1303 17.1592 14.1303 16.7566C14.1303 16.3541 13.8037 16.0275 13.4012 16.0275H4.92501C3.71876 16.0275 2.73751 15.0463 2.73751 13.84V6.29648H17.3209V11.6225C17.3209 12.0252 17.6475 12.3516 18.05 12.3516C18.4526 12.3516 18.7791 12.025 18.7791 11.6225V5.56719C18.7791 5.54863 18.7781 5.53008 18.7768 5.51191C18.7781 5.49355 18.7791 5.4752 18.7791 5.45664V4.99648ZM4.92501 2.80898H15.1334C16.2485 2.80898 17.1713 3.64785 17.3043 4.72734H2.75411C2.88693 3.64785 3.80978 2.80898 4.92501 2.80898Z" fill="#555555"/>
<path d="M16.1731 13.4189C16.3979 12.9877 16.5254 12.4979 16.5254 11.9789C16.5254 10.2561 15.124 8.85469 13.4014 8.85469C11.6787 8.85469 10.277 10.2559 10.277 11.9787C10.277 13.7016 11.6785 15.1029 13.4012 15.1029C14.0764 15.1029 14.7022 14.8875 15.2137 14.5221L16.3793 15.6879C16.5217 15.8303 16.7082 15.9016 16.8949 15.9016C17.0815 15.9016 17.268 15.8303 17.4106 15.6879C17.6953 15.4033 17.6953 14.9416 17.4108 14.6568L16.1731 13.4189ZM13.4012 13.6447C12.4826 13.6447 11.7354 12.8975 11.7354 11.9789C11.7354 11.0604 12.4826 10.3131 13.4012 10.3131C14.3196 10.3131 15.067 11.0604 15.067 11.9789C15.067 12.8975 14.3196 13.6447 13.4012 13.6447Z" fill="#555555"/>
</svg>
